<!DOCTYPE svg PUBLIC "-//W3C//DTD SVG 1.1//EN" "http://www.w3.org/Graphics/SVG/1.1/DTD/svg11.dtd">
<!-- Uploaded to: SVG Repo, www.svgrepo.com, Transformed by: SVG Repo Mixer Tools -->
<svg height="800px" width="800px" version="1.1" id="_x32_" xmlns="http://www.w3.org/2000/svg" xmlns:xlink="http://www.w3.org/1999/xlink" viewBox="-76.8 -76.8 665.60 665.60" xml:space="preserve" fill="#FFFFFF" transform="rotate(-45)matrix(-1, 0, 0, 1, 0, 0)" stroke="#FFFFFF">
<g id="SVGRepo_bgCarrier" stroke-width="0" transform="translate(0,0), scale(1)">
<rect x="-76.8" y="-76.8" width="665.60" height="665.60" rx="332.8" fill="#FDD100" strokewidth="0"/>
</g>
<g id="SVGRepo_tracerCarrier" stroke-linecap="round" stroke-linejoin="round" stroke="#CCCCCC" stroke-width="8.192"/>
<g id="SVGRepo_iconCarrier"> <style type="text/css"> .st0{fill:#000000;} </style> <g> <path class="st0" d="M510.232,103.546c-1.714-4.044-4.552-7.462-8.13-9.882c-3.569-2.436-7.944-3.851-12.567-3.836H22.458 c-3.071,0-6.047,0.628-8.748,1.761c-4.028,1.713-7.438,4.551-9.857,8.129C1.423,103.289,0,107.662,0,112.278v287.435 c0,3.064,0.635,6.038,1.769,8.748c1.721,4.045,4.552,7.454,8.137,9.866c3.562,2.413,7.944,3.844,12.552,3.844h467.076 c3.088,0,6.054-0.643,8.757-1.777c4.044-1.713,7.453-4.544,9.874-8.129c2.412-3.563,3.835-7.928,3.835-12.552V112.278 C512,109.206,511.373,106.215,510.232,103.546z M113.126,405.029l11.531-49.274c1.142-4.889,5.5-8.346,10.518-8.346h241.668 c5.01,0,9.375,3.457,10.517,8.346l11.522,49.274H113.126z M494.865,399.714c0,0.748-0.161,1.432-0.418,2.067 c-0.403,0.933-1.086,1.753-1.93,2.348c-0.877,0.562-1.849,0.901-2.983,0.901h-80.578l-12.069-51.51 c-2.17-9.319-10.477-15.904-20.045-15.904H135.174c-9.576,0-17.883,6.586-20.062,15.904l-12.052,51.51H22.458 c-0.748,0-1.423-0.161-2.058-0.418c-0.948-0.402-1.777-1.093-2.347-1.93c-0.572-0.868-0.901-1.834-0.901-2.967V112.278 c0-0.756,0.145-1.432,0.41-2.058c0.402-0.949,1.085-1.77,1.946-2.348c0.852-0.579,1.842-0.901,2.951-0.901h467.076 c0.764,0,1.448,0.145,2.074,0.403c0.942,0.402,1.77,1.094,2.348,1.946c0.571,0.852,0.901,1.834,0.908,2.959V399.714z"/> <path class="st0" d="M166.55,365.814c-7.799,0-14.104,6.312-14.104,14.096c0,7.792,6.304,14.119,14.104,14.119 c7.792,0,14.112-6.328,14.112-14.119C180.662,372.126,174.341,365.814,166.55,365.814z"/> <path class="st0" d="M363.743,365.814c-7.792,0-14.111,6.312-14.111,14.096c0,7.792,6.32,14.119,14.111,14.119 s14.104-6.328,14.104-14.119C377.846,372.126,371.534,365.814,363.743,365.814z"/> <path class="st0" d="M37.977,118.598c-5.411,0-9.802,4.391-9.802,9.81c0,5.403,4.39,9.793,9.802,9.793 c5.411,0,9.802-4.39,9.802-9.793C47.778,122.989,43.388,118.598,37.977,118.598z"/> <path class="st0" d="M474.023,118.598c-5.396,0-9.786,4.391-9.786,9.81c0,5.403,4.39,9.793,9.786,9.793 c5.42,0,9.81-4.39,9.81-9.793C483.833,122.989,479.443,118.598,474.023,118.598z"/> <path class="st0" d="M37.977,377.465c-5.411,0-9.802,4.39-9.802,9.81c0,5.404,4.39,9.778,9.802,9.778 c5.411,0,9.802-4.374,9.802-9.778C47.778,381.855,43.388,377.465,37.977,377.465z"/> <path class="st0" d="M474.023,377.465c-5.396,0-9.786,4.39-9.786,9.81c0,5.404,4.39,9.778,9.786,9.778 c5.42,0,9.81-4.374,9.81-9.778C483.833,381.855,479.443,377.465,474.023,377.465z"/> <path class="st0" d="M146.471,199.489c-11.94,0-22.787,4.848-30.595,12.664c-7.824,7.823-12.68,18.663-12.68,30.611 c0,11.94,4.856,22.788,12.68,30.612c7.808,7.824,18.655,12.68,30.595,12.68c11.949,0,22.788-4.856,30.604-12.68 c7.824-7.824,12.689-18.671,12.681-30.612c0.008-11.948-4.857-22.788-12.681-30.611 C169.259,204.338,158.42,199.489,146.471,199.489z M182.414,242.765c0,4.913-0.989,9.593-2.782,13.847l-8.95-5.171l-5.082,8.788 l8.829,5.098c-0.804,0.997-1.656,1.929-2.541,2.847c-5.388,5.371-12.432,9.037-20.336,10.155v-9.979h-10.156v9.979 c-7.896-1.118-14.939-4.784-20.327-10.155c-0.901-0.918-1.745-1.85-2.557-2.847l8.837-5.098l-5.082-8.788l-8.949,5.171 c-1.785-4.254-2.766-8.934-2.774-13.847c0.008-4.568,0.852-8.926,2.412-12.93l9.312,5.372l5.082-8.773l-9.432-5.46 c0.965-1.271,2.026-2.484,3.152-3.618c5.388-5.372,12.431-9.038,20.327-10.164v11.129h10.156v-11.129 c7.904,1.126,14.948,4.792,20.336,10.164c1.134,1.134,2.179,2.347,3.152,3.618l-9.44,5.444l5.082,8.789l9.319-5.372 C181.538,233.839,182.414,238.197,182.414,242.765z"/> <path class="st0" d="M192.562,174.45c-6.586-4.439-13.846-7.96-21.582-10.373c-7.751-2.404-16.009-3.698-24.509-3.698 c-11.313,0-22.208,2.3-32.075,6.481c-14.802,6.264-27.338,16.684-36.232,29.831c-4.438,6.57-7.952,13.83-10.364,21.573 c-2.42,7.76-3.723,16.01-3.723,24.501c0,11.33,2.308,22.209,6.489,32.067c6.263,14.811,16.692,27.354,29.831,36.248 c6.57,4.439,13.823,7.961,21.59,10.373c7.752,2.404,16.002,3.698,24.484,3.698c11.33,0.008,22.218-2.3,32.076-6.481 c14.819-6.264,27.362-16.677,36.239-29.832c4.447-6.569,7.969-13.822,10.381-21.582c2.412-7.751,3.707-16.001,3.707-24.492 c0-11.322-2.316-22.208-6.489-32.067C216.114,195.887,205.7,183.343,192.562,174.45z M199.831,265.296 c-4.374,10.372-11.74,19.234-20.995,25.49c-4.632,3.12-9.722,5.58-15.133,7.284c-5.428,1.672-11.185,2.573-17.232,2.573 c-8.04,0-15.607-1.608-22.514-4.519c-10.373-4.39-19.25-11.748-25.498-21.003c-3.12-4.615-5.588-9.714-7.277-15.133 c-1.68-5.419-2.597-11.193-2.597-17.223c0-8.057,1.616-15.623,4.543-22.538c4.374-10.365,11.74-19.225,21.003-25.481 c4.616-3.128,9.705-5.588,15.116-7.286c5.428-1.68,11.193-2.588,17.223-2.588c8.058,0,15.616,1.624,22.539,4.551 c10.364,4.374,19.242,11.74,25.482,20.986c3.128,4.616,5.596,9.713,7.284,15.133c1.689,5.428,2.598,11.185,2.605,17.224 C204.374,250.822,202.75,258.38,199.831,265.296z"/> <path class="st0" d="M365.528,199.489c-11.932,0-22.78,4.848-30.604,12.664c-7.824,7.823-12.68,18.663-12.68,30.611 c0,11.94,4.856,22.788,12.68,30.612c7.824,7.824,18.671,12.68,30.604,12.68c11.94,0,22.788-4.856,30.604-12.68 c7.832-7.824,12.681-18.671,12.681-30.612c0-11.948-4.849-22.788-12.681-30.611C388.316,204.338,377.468,199.489,365.528,199.489z M401.454,242.765c0,4.913-0.98,9.593-2.757,13.847l-8.958-5.171l-5.074,8.788l8.82,5.098c-0.804,0.997-1.648,1.929-2.548,2.847 c-5.379,5.371-12.44,9.037-20.336,10.155v-9.979h-10.156v9.979c-7.888-1.118-14.94-4.784-20.327-10.155 c-0.892-0.918-1.736-1.85-2.541-2.847l8.821-5.098l-5.074-8.788l-8.958,5.171c-1.785-4.254-2.758-8.934-2.758-13.847 c0-4.568,0.852-8.926,2.396-12.93l9.32,5.372l5.074-8.773l-9.424-5.46c0.957-1.271,2.018-2.484,3.144-3.618 c5.387-5.372,12.439-9.038,20.327-10.164v11.129h10.156v-11.129c7.896,1.126,14.957,4.792,20.336,10.164 c1.134,1.134,2.178,2.347,3.152,3.618l-9.424,5.444l5.074,8.789l9.311-5.372C400.602,233.839,401.454,238.197,401.454,242.765z"/> <path class="st0" d="M416.741,166.835c-7.294-4.937-15.366-8.836-23.986-11.538c-8.612-2.669-17.778-4.109-27.227-4.109 c-12.592,0-24.685,2.565-35.645,7.205c-16.459,6.955-30.402,18.55-40.284,33.152c-4.938,7.301-8.853,15.374-11.523,23.994 c-2.685,8.62-4.124,17.786-4.124,27.226c-0.008,12.592,2.556,24.686,7.196,35.653c6.979,16.459,18.558,30.411,33.168,40.268 c7.301,4.946,15.374,8.845,23.986,11.547c8.62,2.67,17.787,4.1,27.226,4.1c12.6,0.016,24.686-2.556,35.653-7.196 c16.459-6.955,30.402-18.55,40.276-33.16c4.937-7.293,8.845-15.367,11.522-23.986c2.686-8.62,4.134-17.787,4.134-27.227 c0-12.6-2.565-24.685-7.213-35.653C442.937,190.66,431.351,176.702,416.741,166.835z M418.887,265.296 c-4.382,10.372-11.748,19.234-21.003,25.49c-4.623,3.12-9.705,5.58-15.133,7.284c-5.42,1.672-11.185,2.573-17.224,2.573 c-8.049,0-15.615-1.608-22.53-4.519c-10.356-4.39-19.25-11.748-25.481-21.003c-3.136-4.615-5.596-9.714-7.285-15.133 c-1.689-5.419-2.597-11.193-2.597-17.223c0-8.057,1.616-15.623,4.542-22.538c4.375-10.365,11.74-19.225,20.995-25.481 c4.632-3.128,9.713-5.588,15.141-7.286c5.411-1.68,11.185-2.588,17.215-2.588c8.049,0,15.615,1.624,22.538,4.551 c10.365,4.374,19.234,11.74,25.482,20.986c3.127,4.616,5.596,9.713,7.277,15.133c1.688,5.428,2.597,11.185,2.597,17.224 C423.422,250.822,421.814,258.38,418.887,265.296z"/> </g> </g>
</svg>