<!DOCTYPE svg PUBLIC "-//W3C//DTD SVG 1.1//EN" "http://www.w3.org/Graphics/SVG/1.1/DTD/svg11.dtd">
<!-- Uploaded to: SVG Repo, www.svgrepo.com, Transformed by: SVG Repo Mixer Tools -->
<svg width="800px" height="800px" viewBox="-1.6 -1.6 19.20 19.20" xmlns="http://www.w3.org/2000/svg" fill="none" stroke="#FFFFFF" stroke-width="0.00016">
<g id="SVGRepo_bgCarrier" stroke-width="0"/>
<g id="SVGRepo_tracerCarrier" stroke-linecap="round" stroke-linejoin="round" stroke="#CCCCCC" stroke-width="0.22400000000000003"> <g fill="#FFFFFF"> <path d="M3.24 5.3a.75.75 0 011.02-1.1l3.5 3.25a.75.75 0 010 1.1l-3.5 3.25a.75.75 0 11-1.02-1.1L6.148 8 3.24 5.3z"/> <path d="M8.24 5.3a.75.75 0 111.02-1.1l3.5 3.25a.75.75 0 010 1.1l-3.5 3.25a.75.75 0 11-1.02-1.1L11.148 8 8.24 5.3z"/> </g> </g>
<g id="SVGRepo_iconCarrier"> <g fill="#FFFFFF"> <path d="M3.24 5.3a.75.75 0 011.02-1.1l3.5 3.25a.75.75 0 010 1.1l-3.5 3.25a.75.75 0 11-1.02-1.1L6.148 8 3.24 5.3z"/> <path d="M8.24 5.3a.75.75 0 111.02-1.1l3.5 3.25a.75.75 0 010 1.1l-3.5 3.25a.75.75 0 11-1.02-1.1L11.148 8 8.24 5.3z"/> </g> </g>
</svg>